<svg id="visual" viewBox="0 0 900 600" width="900" height="600" xmlns="http://www.w3.org/2000/svg" xmlns:xlink="http://www.w3.org/1999/xlink" version="1.1"><rect x="0" y="0" width="900" height="600" fill="#82787c"></rect><defs><linearGradient id="grad1_0" x1="33.3%" y1="0%" x2="100%" y2="100%"><stop offset="20%" stop-color="#c2ada5" stop-opacity="1"></stop><stop offset="80%" stop-color="#c2ada5" stop-opacity="1"></stop></linearGradient></defs><defs><linearGradient id="grad1_1" x1="33.3%" y1="0%" x2="100%" y2="100%"><stop offset="20%" stop-color="#c2ada5" stop-opacity="1"></stop><stop offset="80%" stop-color="#b39f9b" stop-opacity="1"></stop></linearGradient></defs><defs><linearGradient id="grad1_2" x1="33.3%" y1="0%" x2="100%" y2="100%"><stop offset="20%" stop-color="#a39192" stop-opacity="1"></stop><stop offset="80%" stop-color="#b39f9b" stop-opacity="1"></stop></linearGradient></defs><defs><linearGradient id="grad1_3" x1="33.3%" y1="0%" x2="100%" y2="100%"><stop offset="20%" stop-color="#a39192" stop-opacity="1"></stop><stop offset="80%" stop-color="#938487" stop-opacity="1"></stop></linearGradient></defs><defs><linearGradient id="grad1_4" x1="33.3%" y1="0%" x2="100%" y2="100%"><stop offset="20%" stop-color="#82787c" stop-opacity="1"></stop><stop offset="80%" stop-color="#938487" stop-opacity="1"></stop></linearGradient></defs><defs><linearGradient id="grad2_0" x1="0%" y1="0%" x2="66.7%" y2="100%"><stop offset="20%" stop-color="#c2ada5" stop-opacity="1"></stop><stop offset="80%" stop-color="#c2ada5" stop-opacity="1"></stop></linearGradient></defs><defs><linearGradient id="grad2_1" x1="0%" y1="0%" x2="66.7%" y2="100%"><stop offset="20%" stop-color="#b39f9b" stop-opacity="1"></stop><stop offset="80%" stop-color="#c2ada5" stop-opacity="1"></stop></linearGradient></defs><defs><linearGradient id="grad2_2" x1="0%" y1="0%" x2="66.7%" y2="100%"><stop offset="20%" stop-color="#b39f9b" stop-opacity="1"></stop><stop offset="80%" stop-color="#a39192" stop-opacity="1"></stop></linearGradient></defs><defs><linearGradient id="grad2_3" x1="0%" y1="0%" x2="66.7%" y2="100%"><stop offset="20%" stop-color="#938487" stop-opacity="1"></stop><stop offset="80%" stop-color="#a39192" stop-opacity="1"></stop></linearGradient></defs><defs><linearGradient id="grad2_4" x1="0%" y1="0%" x2="66.7%" y2="100%"><stop offset="20%" stop-color="#938487" stop-opacity="1"></stop><stop offset="80%" stop-color="#82787c" stop-opacity="1"></stop></linearGradient></defs><g transform="translate(900, 0)"><path d="M0 540.8C-29.2 475.3 -58.4 409.7 -110 410.5C-161.6 411.3 -235.5 478.4 -270.4 468.4C-305.3 458.4 -301.2 371.2 -324.6 324.6C-347.9 277.9 -398.7 271.7 -422.6 244C-446.5 216.3 -443.6 167.2 -458.8 122.9C-474 78.7 -507.4 39.3 -540.8 0L0 0Z" fill="#8a7e82"></path><path d="M0 432.7C-23.4 380.2 -46.7 327.8 -88 328.4C-129.3 329 -188.4 382.7 -216.3 374.7C-244.3 366.7 -241 297 -259.6 259.6C-278.3 222.3 -319 217.3 -338.1 195.2C-357.2 173.1 -354.9 133.7 -367.1 98.4C-379.2 63 -405.9 31.5 -432.7 0L0 0Z" fill="#9b8b8d"></path><path d="M0 324.5C-17.5 285.2 -35.1 245.8 -66 246.3C-96.9 246.8 -141.3 287 -162.2 281C-183.2 275 -180.7 222.7 -194.7 194.7C-208.7 166.7 -239.2 163 -253.6 146.4C-267.9 129.8 -266.2 100.3 -275.3 73.8C-284.4 47.2 -304.5 23.6 -324.5 0L0 0Z" fill="#ab9897"></path><path d="M0 216.3C-11.7 190.1 -23.4 163.9 -44 164.2C-64.6 164.5 -94.2 191.4 -108.2 187.3C-122.1 183.3 -120.5 148.5 -129.8 129.8C-139.2 111.2 -159.5 108.7 -169 97.6C-178.6 86.5 -177.4 66.9 -183.5 49.2C-189.6 31.5 -203 15.7 -216.3 0L0 0Z" fill="#bba6a0"></path><path d="M0 108.2C-5.8 95.1 -11.7 81.9 -22 82.1C-32.3 82.3 -47.1 95.7 -54.1 93.7C-61.1 91.7 -60.2 74.2 -64.9 64.9C-69.6 55.6 -79.7 54.3 -84.5 48.8C-89.3 43.3 -88.7 33.4 -91.8 24.6C-94.8 15.7 -101.5 7.9 -108.2 0L0 0Z" fill="#c2ada5"></path></g><g transform="translate(0, 600)"><path d="M0 -540.8C45.1 -535.7 90.2 -530.5 140 -522.4C189.7 -514.3 244.1 -503.3 265.5 -459.9C286.9 -416.4 275.3 -340.4 301.2 -301.2C327.2 -262 390.7 -259.6 397.5 -229.5C404.3 -199.4 354.5 -141.7 369 -98.9C383.4 -56 462.1 -28 540.8 0L0 0Z" fill="#8a7e82"></path><path d="M0 -432.7C36.1 -428.5 72.2 -424.4 112 -417.9C151.8 -411.5 195.3 -402.7 212.4 -367.9C229.5 -333.1 220.2 -272.3 241 -241C261.7 -209.6 312.5 -207.7 318 -183.6C323.5 -159.5 283.6 -113.4 295.2 -79.1C306.7 -44.8 369.7 -22.4 432.7 0L0 0Z" fill="#9b8b8d"></path><path d="M0 -324.5C27.1 -321.4 54.1 -318.3 84 -313.4C113.8 -308.6 146.5 -302 159.3 -275.9C172.1 -249.8 165.2 -204.3 180.7 -180.7C196.3 -157.2 234.4 -155.7 238.5 -137.7C242.6 -119.7 212.7 -85 221.4 -59.3C230.1 -33.6 277.3 -16.8 324.5 0L0 0Z" fill="#ab9897"></path><path d="M0 -216.3C18 -214.3 36.1 -212.2 56 -209C75.9 -205.7 97.6 -201.3 106.2 -183.9C114.8 -166.6 110.1 -136.2 120.5 -120.5C130.9 -104.8 156.3 -103.8 159 -91.8C161.7 -79.8 141.8 -56.7 147.6 -39.5C153.4 -22.4 184.9 -11.2 216.3 0L0 0Z" fill="#bba6a0"></path><path d="M0 -108.2C9 -107.1 18 -106.1 28 -104.5C37.9 -102.9 48.8 -100.7 53.1 -92C57.4 -83.3 55.1 -68.1 60.2 -60.2C65.4 -52.4 78.1 -51.9 79.5 -45.9C80.9 -39.9 70.9 -28.3 73.8 -19.8C76.7 -11.2 92.4 -5.6 108.2 0L0 0Z" fill="#c2ada5"></path></g></svg>