<svg id="visual" viewBox="0 0 900 600" width="900" height="600" xmlns="http://www.w3.org/2000/svg" xmlns:xlink="http://www.w3.org/1999/xlink" version="1.1"><rect x="0" y="0" width="900" height="600" fill="#7ca4c5"></rect><path d="M0 481L100 515L200 506L300 518L400 485L500 511L600 513L700 479L800 456L900 471L900 601L800 601L700 601L600 601L500 601L400 601L300 601L200 601L100 601L0 601Z" fill="#a8b8d0"></path><path d="M0 509L100 476L200 505L300 504L400 468L500 500L600 532L700 523L800 468L900 495L900 601L800 601L700 601L600 601L500 601L400 601L300 601L200 601L100 601L0 601Z" fill="#9badc8"></path><path d="M0 484L100 489L200 506L300 506L400 481L500 505L600 493L700 538L800 526L900 542L900 601L800 601L700 601L600 601L500 601L400 601L300 601L200 601L100 601L0 601Z" fill="#8da2c0"></path><path d="M0 551L100 541L200 496L300 520L400 547L500 512L600 497L700 552L800 499L900 543L900 601L800 601L700 601L600 601L500 601L400 601L300 601L200 601L100 601L0 601Z" fill="#8098b8"></path><path d="M0 552L100 518L200 547L300 523L400 535L500 517L600 551L700 519L800 527L900 554L900 601L800 601L700 601L600 601L500 601L400 601L300 601L200 601L100 601L0 601Z" fill="#728db0"></path><path d="M0 535L100 525L200 534L300 553L400 529L500 539L600 538L700 528L800 564L900 565L900 601L800 601L700 601L600 601L500 601L400 601L300 601L200 601L100 601L0 601Z" fill="#6482a8"></path><path d="M0 540L100 550L200 562L300 558L400 551L500 564L600 576L700 568L800 555L900 545L900 601L800 601L700 601L600 601L500 601L400 601L300 601L200 601L100 601L0 601Z" fill="#5678a0"></path><path d="M0 576L100 559L200 566L300 557L400 563L500 573L600 578L700 573L800 580L900 565L900 601L800 601L700 601L600 601L500 601L400 601L300 601L200 601L100 601L0 601Z" fill="#476e99"></path><path d="M0 591L100 574L200 573L300 580L400 580L500 588L600 572L700 574L800 572L900 575L900 601L800 601L700 601L600 601L500 601L400 601L300 601L200 601L100 601L0 601Z" fill="#376491"></path></svg>