<svg id="visual" viewBox="0 0 1349 427" width="1349" height="427" xmlns="http://www.w3.org/2000/svg" xmlns:xlink="http://www.w3.org/1999/xlink" version="1.1"><rect x="0" y="0" width="1349" height="427" fill="#6146d7"></rect><path d="M0 317L37.5 318.8C75 320.7 150 324.3 225 321.5C300 318.7 375 309.3 450 310.8C525 312.3 600 324.7 674.8 325.3C749.7 326 824.3 315 899.2 309.8C974 304.7 1049 305.3 1124 306.7C1199 308 1274 310 1311.5 311L1349 312L1349 428L1311.5 428C1274 428 1199 428 1124 428C1049 428 974 428 899.2 428C824.3 428 749.7 428 674.8 428C600 428 525 428 450 428C375 428 300 428 225 428C150 428 75 428 37.5 428L0 428Z" fill="#6146d7"></path><path d="M0 348L37.5 343.2C75 338.3 150 328.7 225 328.2C300 327.7 375 336.3 450 341.5C525 346.7 600 348.3 674.8 350.5C749.7 352.7 824.3 355.3 899.2 356.2C974 357 1049 356 1124 350C1199 344 1274 333 1311.5 327.5L1349 322L1349 428L1311.5 428C1274 428 1199 428 1124 428C1049 428 974 428 899.2 428C824.3 428 749.7 428 674.8 428C600 428 525 428 450 428C375 428 300 428 225 428C150 428 75 428 37.5 428L0 428Z" fill="#8067e1"></path><path d="M0 340L37.5 341.5C75 343 150 346 225 346.2C300 346.3 375 343.7 450 346.2C525 348.7 600 356.3 674.8 358.8C749.7 361.3 824.3 358.7 899.2 357.5C974 356.3 1049 356.7 1124 357C1199 357.3 1274 357.7 1311.5 357.8L1349 358L1349 428L1311.5 428C1274 428 1199 428 1124 428C1049 428 974 428 899.2 428C824.3 428 749.7 428 674.8 428C600 428 525 428 450 428C375 428 300 428 225 428C150 428 75 428 37.5 428L0 428Z" fill="#9c87e9"></path><path d="M0 363L37.5 362.8C75 362.7 150 362.3 225 365.5C300 368.7 375 375.3 450 378C525 380.7 600 379.3 674.8 376.7C749.7 374 824.3 370 899.2 369C974 368 1049 370 1124 369.2C1199 368.3 1274 364.7 1311.5 362.8L1349 361L1349 428L1311.5 428C1274 428 1199 428 1124 428C1049 428 974 428 899.2 428C824.3 428 749.7 428 674.8 428C600 428 525 428 450 428C375 428 300 428 225 428C150 428 75 428 37.5 428L0 428Z" fill="#b8a7f1"></path><path d="M0 392L37.5 392C75 392 150 392 225 393.2C300 394.3 375 396.7 450 396.8C525 397 600 395 674.8 392C749.7 389 824.3 385 899.2 382.3C974 379.7 1049 378.3 1124 378.2C1199 378 1274 379 1311.5 379.5L1349 380L1349 428L1311.5 428C1274 428 1199 428 1124 428C1049 428 974 428 899.2 428C824.3 428 749.7 428 674.8 428C600 428 525 428 450 428C375 428 300 428 225 428C150 428 75 428 37.5 428L0 428Z" fill="#d3c8f7"></path><path d="M0 401L37.5 402.7C75 404.3 150 407.7 225 408C300 408.3 375 405.7 450 404.3C525 403 600 403 674.8 401.8C749.7 400.7 824.3 398.3 899.2 398.8C974 399.3 1049 402.7 1124 402C1199 401.3 1274 396.7 1311.5 394.3L1349 392L1349 428L1311.5 428C1274 428 1199 428 1124 428C1049 428 974 428 899.2 428C824.3 428 749.7 428 674.8 428C600 428 525 428 450 428C375 428 300 428 225 428C150 428 75 428 37.5 428L0 428Z" fill="#eeeafd"></path></svg>